#!OML:ASF H:\charlestonDancing\Project 1\Capture day 1\Session 1\femaleDancer.ASF
:FULLY-SPECIFIED
:DEGREES
205
root -1.07953 17.6787 4.76628 521.278 -85.7825 -518.396
lowerback 26.1794 -0.381613 6.48126
upperback 8.1973 0.284168 -1.56176
thorax -5.28397 -0.122401 -5.50563
lowerneck 6.21323 13.9215 12.2272
upperneck -4.61768 19.0686 -16.2053
head 0.411854 9.83969 -6.60964
rclavicle -1.93815e-015 -8.24956e-015
rhumerus -60.8963 -26.9434 -45.1063
rradius 97.4208
rwrist -50.6557
rhand -13.8574 -30.2788
rfingers 7.12502
rthumb 12.2666 -59.8991
lclavicle -1.93815e-015 -8.24956e-015
lhumerus -102.768 10.0635 -43.506
lradius 12.2811
lwrist -62.7224
lhand -14.9741 28.6284
lfingers 7.12502
lthumb 11.1897 58.3101
rfemur -20.0229 5.12053 27.1718
rtibia 38.8562
rfoot -17.4495 0.543686
rtoes -7.15825
lfemur -51.6631 -3.20702 -15.1914
ltibia 59.1626
lfoot -18.5833 -1.7957
ltoes -22.9009
206
root -1.11451 17.6754 4.7904 528.189 -84.6767 -524.901
lowerback 25.8179 -0.00570945 6.41408
upperback 7.84532 0.773576 -1.5304
thorax -5.43421 0.11319 -5.57404
lowerneck 6.08906 13.1961 10.8161
upperneck -4.34472 17.9812 -15.3848
head 0.148742 9.28352 -6.24344
rclavicle -1.6201e-014 -8.39865e-015
rhumerus -61.6784 -26.0538 -44.2984
rradius 97.8653
rwrist -50.8075
rhand -13.3773 -30.3834
rfingers 7.12502
rthumb 12.7295 -59.9754
lclavicle -1.6201e-014 -8.39865e-015
lhumerus -101.97 10.1742 -41.9417
lradius 12.5238
lwrist -59.7175
lhand -15.3014 28.6896
lfingers 7.12502
lthumb 10.8741 58.3881
rfemur -20.2617 4.66498 26.8003
rtibia 38.4424
rfoot -17.4565 2.35041
rtoes -5.83702
lfemur -51.2462 -3.17965 -14.3518
ltibia 51.5824
lfoot -16.6918 -3.35412
ltoes -21.2585
207
root -1.15005 17.673 4.81738 531.579 -83.4595 -527.975
lowerback 25.4774 0.265872 6.42479
upperback 7.77655 1.11322 -1.4937
thorax -5.29587 0.283371 -5.63036
lowerneck 4.81756 12.5679 9.29869
upperneck -3.68287 16.9891 -14.6299
head 0.217262 8.73039 -5.75262
rclavicle -2.72397e-015 5.95733e-015
rhumerus -61.6322 -25.4347 -43.948
rradius 98.1863
rwrist -50.8877
rhand -12.9744 -30.3439
rfingers 7.12502
rthumb 13.1178 -59.9113
lclavicle -2.72397e-015 5.95733e-015
lhumerus -101.948 10.7497 -40.8806
lradius 12.7993
lwrist -57.9423
lhand -15.8944 28.6782
lfingers 7.12502
lthumb 10.302 58.4059
rfemur -20.4528 4.09829 26.629
rtibia 38.1496
rfoot -17.6556 4.07347
rtoes -5.20214
lfemur -50.7541 -3.14952 -13.2944
ltibia 45.325
lfoot -15.6507 -5.08456
ltoes -24.7329
208
root -1.18188 17.6705 4.85147 533.56 -82.3208 -529.79
lowerback 25.1771 0.446906 6.57958
upperback 7.63308 1.38438 -1.45448
thorax -5.26341 0.417618 -5.74762
lowerneck 3.7235 11.7149 6.72361
upperneck -3.07788 15.6973 -12.2087
head 0.00787828 8.01721 -4.66519
rclavicle -5.56597e-015 2.05991e-014
rhumerus -61.5589 -24.6604 -43.5337
rradius 98.4072
rwrist -50.9896
rhand -12.8369 -30.5078
rfingers 7.12502
rthumb 13.2504 -60.0666
lclavicle -5.56597e-015 2.05991e-014
lhumerus -102.01 11.312 -40.7172
lradius 12.9311
lwrist -57.6916
lhand -16.6568 29.1053
lfingers 7.12502
lthumb 9.56645 58.8681
rfemur -20.5516 3.38347 26.4959
rtibia 38.0483
rfoot -18.0584 5.63908
rtoes -4.84869
lfemur -50.2488 -3.26451 -12.2545
ltibia 40.8928
lfoot -13.3062 -7.13255
ltoes -25.791
209
root -1.21204 17.6351 4.88863 531.866 -81.2363 -528.058
lowerback 24.9903 0.596858 7.28345
upperback 7.35481 1.78331 -1.2537
thorax -5.39584 0.606404 -6.04392
lowerneck 4.0667 10.717 5.78672
upperneck -2.756 14.3215 -12.0695
head -0.162046 7.33455 -4.54852
rclavicle -2.27608e-014 -3.47873e-015
rhumerus -61.802 -23.8375 -42.7758
rradius 98.6227
rwrist -51.1042
rhand -12.6766 -30.8782
rfingers 7.12502
rthumb 13.4049 -60.4269
lclavicle -2.27608e-014 -3.47873e-015
lhumerus -101.874 12.0521 -41.0343
lradius 12.9327
lwrist -58.5181
lhand -16.2732 28.4192
lfingers 7.12502
lthumb 9.93656 58.1646
rfemur -20.5712 2.86472 26.8763
rtibia 38.1308
rfoot -18.4089 6.95725
rtoes -3.86563
lfemur -49.7598 -3.17137 -11.1202
ltibia 38.8423
lfoot -11.9341 -8.00788
ltoes -28.0398
210
root -1.24431 17.5763 4.92436 528.897 -80.3405 -525.186
lowerback 24.8517 -0.932314 6.51509
upperback 7.63611 -0.483767 -2.06072
thorax -5.36399 -0.495488 -5.84193
lowerneck 2.1792 11.7485 7.9532
upperneck -2.17645 15.7908 -12.224
head 0.627981 7.99051 -4.69413
rclavicle -6.36111e-015 1.43125e-014
rhumerus -57.0574 -21.279 -48.4093
rradius 98.3276
rwrist -50.5496
rhand -12.381 -30.9227
rfingers 7.12502
rthumb 13.6898 -60.4525
lclavicle -6.36111e-015 1.43125e-014
lhumerus -104.814 11.7385 -40.6653
lradius 13.1118
lwrist -54.2314
lhand -15.5977 28.6433
lfingers 7.12502
lthumb 10.5882 58.3565
rfemur -20.5119 2.5706 27.4998
rtibia 38.4238
rfoot -18.8328 7.9246
rtoes -2.58037
lfemur -49.2678 -2.77469 -10.3001
ltibia 39.0092
lfoot -10.5509 -8.2117
ltoes -25.4835
211
root -1.28167 17.5191 4.95604 527.02 -79.6817 -523.635
lowerback 24.9488 -1.1381 6.89929
upperback 7.50638 -0.635511 -1.98937
thorax -5.57484 -0.578977 -5.94288
lowerneck 1.97189 11.0775 7.43587
upperneck -1.61098 14.8941 -11.3488
head 0.629134 7.52109 -4.37989
rclavicle -8.34896e-015 9.14409e-015
rhumerus -56.6054 -20.2806 -48.6626
rradius 98.31
rwrist -50.5122
rhand -12.2366 -30.7615
rfingers 7.12502
rthumb 13.829 -60.2818
lclavicle -8.34896e-015 9.14409e-015
lhumerus -103.943 13.6733 -35.8094
lradius 13.1342
lwrist -50.5791
lhand -14.6783 28.2525
lfingers 7.12502
lthumb 11.475 57.9184
rfemur -20.2112 2.50693 27.8897
rtibia 38.8433
rfoot -19.4927 8.31929
rtoes -2.63607
lfemur -48.5788 -1.85517 -10.4355
ltibia 40.9681
lfoot -9.28877 -7.68556
ltoes -26.6382
212
root -1.33142 17.4693 4.98194 525.588 -79.2638 -522.777
lowerback 25.1291 -1.35343 7.06777
upperback 7.49748 -0.862125 -1.94128
thorax -5.70693 -0.697627 -5.92086
lowerneck 1.92781 10.4853 7.54154
upperneck -1.0167 14.1319 -11.268
head 0.740832 7.12661 -4.38174
rclavicle 2.18663e-014 -1.51076e-014
rhumerus -56.1633 -19.4846 -48.9615
rradius 98.1674
rwrist -50.3614
rhand -12.1111 -30.579
rfingers 7.12502
rthumb 13.9499 -60.091
lclavicle 2.18663e-014 -1.51076e-014
lhumerus -101.644 16.4344 -26.5408
lradius 13.4477
lwrist -43.1867
lhand -13.5857 27.8274
lfingers 7.12502
lthumb 12.5285 57.4318
rfemur -19.5791 2.52138 28.1093
rtibia 39.2791
rfoot -20.1808 8.30042
rtoes -3.55067
lfemur -47.3643 -0.645733 -11.1981
ltibia 44.0998
lfoot -8.17771 -7.05858
ltoes -27.1429
213
root -1.39229 17.4415 5.00308 523.934 -79.091 -521.663
lowerback 25.2172 -1.52973 7.20883
upperback 7.47802 -1.03794 -1.79772
thorax -5.79685 -0.788581 -5.7901
lowerneck 1.63607 9.74309 6.56653
upperneck -0.39012 13.124 -9.41921
head 0.752832 6.60391 -4.07498
rclavicle 5.36719e-015 2.34566e-014
rhumerus -55.8873 -19.021 -49.0073
rradius 97.8506
rwrist -50.2473
rhand -11.7684 -30.3844
rfingers 7.12502
rthumb 14.2802 -59.8734
lclavicle 5.36719e-015 2.34566e-014
lhumerus -98.0531 19.2205 -15.4916
lradius 14.1518
lwrist -35.394
lhand -13.0218 27.2261
lfingers 7.12502
lthumb 13.0722 56.7964
rfemur -18.8785 2.46295 28.301
rtibia 39.6056
rfoot -20.7645 8.0776
rtoes -4.80347
lfemur -46.1893 0.320569 -11.9267
ltibia 47.8843
lfoot -6.2343 -7.08333
ltoes -19.9512
214
root -1.46078 17.4344 5.02348 522.655 -79.229 -520.618
lowerback 25.0001 -1.67436 7.28994
upperback 7.37248 -1.18556 -1.60695
thorax -5.82677 -0.858703 -5.58052
lowerneck 1.51135 9.00801 5.83423
upperneck 0.265425 12.1392 -8.50203
head 0.782221 6.09632 -3.64161
rclavicle 2.66371e-014 3.29983e-014
rhumerus -55.671 -18.8516 -48.8918
rradius 97.273
rwrist -50.0645
rhand -11.5115 -30.2687
rfingers 7.12502
rthumb 14.5277 -59.74
lclavicle 2.66371e-014 3.29983e-014
lhumerus -93.2201 21.3559 -3.29064
lradius 15.2952
lwrist -28.7462
lhand -12.8934 25.7731
lfingers 7.12502
lthumb 13.196 55.3355
rfemur -18.4355 2.35174 28.3309
rtibia 39.7882
rfoot -21.188 7.62248
rtoes -6.59954
lfemur -45.2707 1.06386 -12.7912
ltibia 51.9357
lfoot -4.98511 -6.75349
ltoes -18.8681
215
root -1.53422 17.4417 5.04554 521.551 -79.6307 -519.436
lowerback 24.4962 -1.85388 7.3874
upperback 7.14982 -1.37478 -1.43087
thorax -5.84977 -0.943922 -5.38678
lowerneck 1.77161 8.30011 5.64223
upperneck 0.896566 11.215 -8.0547
head 0.824833 5.62918 -3.48168
rclavicle 4.17448e-015 -3.97569e-015
rhumerus -55.5083 -18.836 -48.7685
rradius 96.4946
rwrist -49.8317
rhand -11.4903 -30.3092
rfingers 7.12502
rthumb 14.5481 -59.7791
lclavicle 4.17448e-015 -3.97569e-015
lhumerus -87.505 22.2105 9.67141
lradius 17.3607
lwrist -22.4124
lhand -12.6042 23.7325
lfingers 7.12502
lthumb 13.4747 53.2766
rfemur -18.2581 2.12239 28.2539
rtibia 39.846
rfoot -21.4052 6.98021
rtoes -8.15585
lfemur -44.566 1.58148 -13.7381
ltibia 55.8322
lfoot -4.03862 -6.65014
ltoes -18.9428
216
root -1.60889 17.4618 5.06996 519.648 -80.0813 -517.155
lowerback 23.7011 -2.06041 7.71557
upperback 6.83265 -1.55202 -1.23482
thorax -5.82805 -1.01961 -5.31217
lowerneck 2.16848 7.68259 5.49972
upperneck 1.31499 10.4073 -7.73597
head 0.800662 5.22547 -3.379
rclavicle -3.18055e-015 3.97569e-016
rhumerus -55.3454 -19.0841 -48.5858
rradius 95.459
rwrist -49.7727
rhand -11.2821 -30.1252
rfingers 7.12502
rthumb 14.7488 -59.5805
lclavicle -3.18055e-015 3.97569e-016
lhumerus -81.9267 21.8153 21.3602
lradius 20.3775
lwrist -17.2323
lhand -12.7509 21.396
lfingers 7.12502
lthumb 13.3333 50.9495
rfemur -18.3306 1.77805 28.32
rtibia 39.8325
rfoot -21.5136 6.27059
rtoes -9.25204
lfemur -43.9899 2.04087 -14.5469
ltibia 59.2783
lfoot -3.52998 -6.68459
ltoes -20.1776
217
root -1.68735 17.4887 5.09555 517.605 -80.5523 -514.594
lowerback 22.6736 -2.24177 8.09781
upperback 6.50736 -1.71145 -1.07828
thorax -5.69244 -1.08209 -5.32346
lowerneck 2.49271 7.16025 5.43184
upperneck 1.71316 9.7255 -7.49546
head 0.804221 4.88383 -3.30673
rclavicle 3.77691e-015 -6.36111e-015
rhumerus -55.2314 -19.5785 -48.3527
rradius 94.268
rwrist -49.7799
rhand -10.8762 -29.7166
rfingers 7.12502
rthumb 15.1398 -59.1428
lclavicle 3.77691e-015 -6.36111e-015
lhumerus -76.9154 20.4622 31.2154
lradius 24.1961
lwrist -13.3062
lhand -13.9226 19.1091
lfingers 7.12502
lthumb 12.2037 48.7331
rfemur -18.5903 1.346 28.3816
rtibia 39.9003
rfoot -21.4394 5.73669
rtoes -9.57537
lfemur -43.3401 2.53212 -15.3824
ltibia 62.0026
lfoot -3.2226 -6.7283
ltoes -21.4501
218
root -1.76457 17.5243 5.11796 516.35 -80.9684 -512.88
lowerback 21.7852 -1.52708 9.14068
upperback 5.95345 -0.521721 -0.606285
thorax -5.65578 -0.501833 -5.7298
lowerneck 3.47055 5.75041 3.86222
upperneck 2.07431 7.81015 -6.66596
head 0.505727 3.92187 -2.80248
rclavicle -4.02539e-015 2.38542e-014
rhumerus -57.6605 -21.2109 -45.2158
rradius 93.3974
rwrist -49.9264
rhand -10.6394 -29.3796
rfingers 7.12502
rthumb 15.3678 -58.7885
lclavicle -4.02539e-015 2.38542e-014
lhumerus -71.0248 17.2796 40.7506
lradius 28.2865
lwrist -10.9636
lhand -15.6908 17.0422
lfingers 7.12502
lthumb 10.4984 46.7601
rfemur -18.9271 0.967009 28.3333
rtibia 40.1514
rfoot -21.1765 5.41717
rtoes -9.77112
lfemur -42.344 3.08091 -16.2924
ltibia 63.7435
lfoot -3.34501 -6.68487
ltoes -21.3324
